<svg width="737" height="132" xmlns="http://www.w3.org/2000/svg">

 <g>
  <title>background</title>
  <rect fill="none" id="canvas_background" height="134" width="739" y="-1" x="-1"/>
 </g>
 <g>
  <title>Layer 1</title>
  <g id="svg_1">
   <path fill="#fff" id="svg_2" d="m654.7,9.9l71.5,0l0,21.8l-42.2,0l0,22.3l28.2,0l0,21.8l-28.2,0l0,26.6l42.3,0l0,21.8l-71.5,0l0,-114.3l-0.1,0zm-68.2,93.4l3,0c15.2,0 19.5,-10.9 19.5,-36.2c0,-25.3 -4.3,-36.3 -19.5,-36.3l-3,0l0,72.5zm4.9,-93.4c31.7,0 48.7,19.8 48.7,57.1c0,37.3 -17,57 -48.7,57l-34.3,0l0,-114.1l34.3,0zm-86.5,0l29.6,0l0,114.1l-29.6,0l0,-114.1zm-71.4,21.8l-24.5,0l0,-21.8l78.3,0l0,21.8l-24.5,0l0,92.4l-29.3,0l0,-92.4zm-165.9,-21.8l29.3,0l0,43.4l21.5,0l0,-43.4l29.3,0l0,114.1l-29.3,0l0,-47.7l-21.5,0l0,47.7l-29.3,0l0,-114.1zm-65.1,116.4c-25.8,0 -41.1,-19.2 -41.1,-55.2c0,-41.9 15.2,-63.4 44.5,-63.4c24.5,0 40,15.8 40,41.5l0,1.6l-27.7,0c0,-14.2 -3.8,-21.1 -12.5,-21.1c-11,0 -13.3,13.3 -13.3,41.5c0,23 2.4,34.1 13.8,34.1c8.2,0 13.3,-6.4 13.3,-18.1l0,-0.5l-13.9,0l0,-19.4l39.7,0l0,57.3l-12.3,0l-5.4,-9.1c-6.7,7.3 -14.8,10.8 -25.1,10.8m-86.5,-116.4l29.6,0l0,114.1l-29.6,0l0,-114.1zm-104.2,0l29.2,0l0,43.4l21.5,0l0,-43.4l29.3,0l0,114.1l-29.3,0l0,-47.7l-21.5,0l0,47.7l-29.2,0l0,-114.1z"/>
  </g>
  <g id="svg_3"/>
  <g id="svg_4"/>
  <g id="svg_5"/>
  <g id="svg_6"/>
  <g id="svg_7"/>
  <g id="svg_8"/>
 </g>
</svg>
