<svg width="272" height="321" xmlns="http://www.w3.org/2000/svg">

 <g>
  <title>background</title>
  <rect fill="none" id="canvas_background" height="323" width="274" y="-1" x="-1"/>
 </g>
 <g>
  <title>Layer 1</title>
  <path id="svg_1" d="m250.175,238.2c-11.8,11.8 -34.2,11.8 -46,0c-2.4,-2.4 -6.5,-2.4 -8.9,0c-5.5,5.5 -16,8.9 -27.3,8.9c-5,0 -9.9,-0.7 -14.2,-1.9c3.1,-4.2 5,-10.8 5,-18.4c0,-7.7 -1.9,-14.4 -5.1,-18.6c2,-3.4 3.1,-7.8 3.1,-12.4c0,-5.5 -1.5,-10.5 -4.1,-14c1.4,-3.1 2.2,-6.9 2.2,-10.8c0,-4.7 -1.1,-9 -3,-12.4c1.3,-3.2 2,-7.1 2,-11.3c0,-4.6 -0.9,-8.9 -2.4,-12.2c0.8,-0.4 2,-1 3.9,-1.5c0.1,0 0.3,0 0.4,0c0.3,0 0.6,0 1.1,0c21.5,0 32.2,32.2 35.8,46c0.5,1.8 1.9,3.1 3.7,3.4c1.8,0.4 3.6,-0.4 4.7,-1.8c14.7,-19.9 20.4,-38 16.8,-53.9c-2.3,-10 -7.7,-16.8 -12.3,-21.1c0.9,-0.2 2,-0.3 3.1,-0.3c12.5,0 26.4,13.3 39,37.6c0.9,1.7 2.8,2.7 4.7,2.5c1.9,-0.2 3.5,-1.7 4,-3.6c7.6,-32.1 5.5,-55.9 -6.2,-70.8c-5,-6.3 -11.8,-11 -20,-13.9c-6.6,-2.3 -14.1,-3.4 -22.5,-3.4c-10,0 -19.2,1.7 -25,3c0.4,-2.7 1.2,-6 2.8,-9.4c4.8,-10 14.2,-15.8 28.1,-17.3c1.9,-0.2 3.5,-1.6 4,-3.5c0.5,-1.9 -0.2,-3.9 -1.8,-5c-11.8,-8.5 -23.9,-12.9 -35.9,-12.9c-20,0 -35.1,11.8 -43.8,21.1c-8.7,-9.3 -23.8,-21.1 -43.8,-21.1c-12,0 -24,4.3 -35.9,12.9c-1.6,1.1 -2.3,3.1 -1.8,5c0.5,1.9 2.1,3.3 4,3.5c13.9,1.5 23.4,7.3 28.1,17.3c1.6,3.4 2.4,6.7 2.8,9.4c-5.8,-1.4 -15,-3 -25,-3c-8.3,0 -15.9,1.2 -22.5,3.4c-8.3,2.9 -15,7.6 -20,13.9c-11.8,14.9 -13.9,38.7 -6.3,70.8c0.5,1.9 2,3.3 4,3.6c1.9,0.2 3.8,-0.7 4.7,-2.5c12.7,-24.2 26.5,-37.6 39,-37.6c1.1,0 2.2,0.1 3.1,0.3c-4.5,4.2 -10,11.1 -12.3,21.1c-3.6,15.8 2.1,34 16.8,53.9c1.1,1.5 2.9,2.2 4.7,1.8c1.8,-0.3 3.2,-1.7 3.7,-3.4c3.6,-13.8 14.2,-46 35.8,-46c0.4,0 0.8,0 1.1,0c0.2,0 0.3,0 0.4,0c1.9,0.6 3.1,1.1 3.9,1.5c-1.5,3.3 -2.4,7.6 -2.4,12.2c0,4.2 0.7,8.1 2,11.3c-1.9,3.3 -3,7.7 -3,12.4c0,3.9 0.8,7.7 2.2,10.8c-2.6,3.6 -4.1,8.6 -4.1,14c0,4.7 1.1,9 3.1,12.4c-3.2,4.2 -5.1,10.9 -5.1,18.6c0,7.6 1.9,14.2 5,18.5c-14.1,4 -32.8,1.7 -41.6,-7.1c-2.4,-2.4 -6.5,-2.4 -8.9,0c-5.7,5.7 -14.1,8.9 -23,8.9c-8.9,0 -17.3,-3.3 -23,-8.9c-2.4,-2.4 -6.4,-2.4 -8.9,0c-2.5,2.4 -2.5,6.4 0,8.9c8,8 19.6,12.6 31.9,12.6c10.2,0 19.9,-3.2 27.5,-8.8c8.4,5.9 20.1,8.9 31.7,8.9c11.7,0 23.3,-3 31.8,-9c8,5.6 19.5,8.9 31.7,8.9c12.2,0 23.6,-3.2 31.7,-8.9c17.2,12.8 44.1,11.5 59.4,-3.8c2.5,-2.4 2.5,-6.4 0,-8.9c-2,-2.3 -5.9,-2.3 -8.4,0.1zm-124.4,-152.8c-4.5,4.5 -10.7,6.7 -16.8,6.7c-6.2,0 -12.4,-2.2 -16.8,-6.7c-1.5,-1.5 -1.5,-4 0,-5.5c1.5,-1.5 4,-1.5 5.5,0c5.8,5.8 16.9,5.8 22.7,0c1.5,-1.5 4,-1.5 5.5,0c1.4,1.6 1.4,4 -0.1,5.5zm21,-5.4c1.5,-1.5 4,-1.5 5.5,0c2.8,2.8 6.9,4.4 11.4,4.4c4.4,0 8.6,-1.6 11.4,-4.4c1.5,-1.5 4,-1.5 5.5,0c1.5,1.5 1.5,4 0,5.5c-4.2,4.2 -10.4,6.7 -16.8,6.7c-6.5,0 -12.6,-2.4 -16.8,-6.7c-1.7,-1.6 -1.7,-4 -0.2,-5.5zm60.4,215c-9.4,9.4 -34.4,9.4 -43.8,0c-2.5,-2.5 -6.4,-2.5 -8.9,0c-9.4,9.4 -34.3,9.4 -43.8,0c-2.4,-2.4 -6.4,-2.5 -8.9,0c-9.4,9.4 -27.2,9.4 -36.6,0c-2.4,-2.5 -6.4,-2.5 -8.9,0c-2.5,2.4 -2.5,6.4 0,8.9c7.2,7.2 17.2,10.9 27.2,10.9c8.1,0 16.2,-2.4 22.8,-7.2c14.2,9.5 38.3,9.5 52.5,-0.1c15.8,10.6 44,9.4 57.1,-3.6c2.4,-2.4 2.4,-6.4 0,-8.9c-2.3,-2.5 -6.2,-2.5 -8.7,0z"/>
  <g id="svg_2"/>
  <g id="svg_3"/>
  <g id="svg_4"/>
  <g id="svg_5"/>
  <g id="svg_6"/>
  <g id="svg_7"/>
 </g>
</svg>